<svg width="291" height="76" viewBox="0 0 291 76" fill="none" xmlns="http://www.w3.org/2000/svg">
<path d="M0.82188 75.2507V15.346H12.7348V22.6639H13.2737C13.8031 21.4915 14.569 20.3002 15.5712 19.09C16.5923 17.8609 17.9159 16.8398 19.5421 16.0267C21.1872 15.1947 23.2294 14.7787 25.6687 14.7787C28.8455 14.7787 31.7765 15.6107 34.4616 17.2747C37.1467 18.9198 39.2929 21.4064 40.9002 24.7345C42.5075 28.0436 43.3111 32.1942 43.3111 37.1863C43.3111 42.046 42.5264 46.1493 40.9569 49.4962C39.4064 52.8243 37.2885 55.3487 34.6034 57.0694C31.9372 58.7713 28.9495 59.6222 25.6404 59.6222C23.2956 59.6222 21.3007 59.2345 19.6556 58.4593C18.0294 57.684 16.6963 56.7101 15.6563 55.5378C14.6162 54.3465 13.822 53.1457 13.2737 51.9355H12.9049V75.2507H0.82188ZM12.6497 37.1295C12.6497 39.7201 13.0089 41.9798 13.7275 43.9085C14.4461 45.8373 15.4861 47.3406 16.8475 48.4184C18.209 49.4773 19.8636 50.0068 21.8112 50.0068C23.7778 50.0068 25.4418 49.4679 26.8033 48.39C28.1648 47.2933 29.1953 45.7806 29.895 43.8518C30.6135 41.9041 30.9728 39.6634 30.9728 37.1295C30.9728 34.6146 30.623 32.4022 29.9233 30.4924C29.2237 28.5825 28.1931 27.0887 26.8317 26.0108C25.4702 24.933 23.7967 24.3941 21.8112 24.3941C19.8447 24.3941 18.1806 24.9141 16.8192 25.9541C15.4766 26.9941 14.4461 28.4691 13.7275 30.3789C13.0089 32.2887 12.6497 34.539 12.6497 37.1295ZM69.853 59.764C65.4472 59.764 61.6369 58.828 58.4224 56.956C55.2267 55.065 52.759 52.4366 51.0193 49.0708C49.2797 45.686 48.4099 41.7623 48.4099 37.2997C48.4099 32.7993 49.2797 28.8662 51.0193 25.5003C52.759 22.1155 55.2267 19.4871 58.4224 17.6151C61.6369 15.7242 65.4472 14.7787 69.853 14.7787C74.2589 14.7787 78.0597 15.7242 81.2554 17.6151C84.47 19.4871 86.9471 22.1155 88.6867 25.5003C90.4264 28.8662 91.2962 32.7993 91.2962 37.2997C91.2962 41.7623 90.4264 45.686 88.6867 49.0708C86.9471 52.4366 84.47 55.065 81.2554 56.956C78.0597 58.828 74.2589 59.764 69.853 59.764ZM69.9098 50.4039C71.9142 50.4039 73.5876 49.8366 74.9302 48.702C76.2728 47.5486 77.2844 45.9791 77.9651 43.9936C78.6648 42.0081 79.0146 39.7485 79.0146 37.2146C79.0146 34.6808 78.6648 32.4211 77.9651 30.4356C77.2844 28.4502 76.2728 26.8807 74.9302 25.7272C73.5876 24.5737 71.9142 23.997 69.9098 23.997C67.8865 23.997 66.1846 24.5737 64.8043 25.7272C63.4428 26.8807 62.4122 28.4502 61.7126 30.4356C61.0318 32.4211 60.6915 34.6808 60.6915 37.2146C60.6915 39.7485 61.0318 42.0081 61.7126 43.9936C62.4122 45.9791 63.4428 47.5486 64.8043 48.702C66.1846 49.8366 67.8865 50.4039 69.9098 50.4039ZM114.009 59.6222C110.7 59.6222 107.703 58.7713 105.018 57.0694C102.351 55.3487 100.234 52.8243 98.6641 49.4962C97.1135 46.1493 96.3382 42.046 96.3382 37.1863C96.3382 32.1942 97.1419 28.0436 98.7492 24.7345C100.356 21.4064 102.493 18.9198 105.159 17.2747C107.845 15.6107 110.785 14.7787 113.981 14.7787C116.42 14.7787 118.453 15.1947 120.079 16.0267C121.724 16.8398 123.048 17.8609 124.05 19.09C125.071 20.3002 125.846 21.4915 126.376 22.6639H126.744V0.823618H138.799V58.9131H126.886V51.9355H126.376C125.808 53.1457 125.005 54.3465 123.965 55.5378C122.944 56.7101 121.611 57.684 119.965 58.4593C118.339 59.2345 116.354 59.6222 114.009 59.6222ZM117.838 50.0068C119.786 50.0068 121.431 49.4773 122.773 48.4184C124.135 47.3406 125.175 45.8373 125.893 43.9085C126.631 41.9798 127 39.7201 127 37.1295C127 34.539 126.64 32.2887 125.922 30.3789C125.203 28.4691 124.163 26.9941 122.802 25.9541C121.44 24.9141 119.786 24.3941 117.838 24.3941C115.853 24.3941 114.179 24.933 112.818 26.0108C111.456 27.0887 110.426 28.5825 109.726 30.4924C109.026 32.4022 108.677 34.6146 108.677 37.1295C108.677 39.6634 109.026 41.9041 109.726 43.8518C110.445 45.7806 111.475 47.2933 112.818 48.39C114.179 49.4679 115.853 50.0068 117.838 50.0068Z" fill="#1ED760"/>
<path d="M168.355 58.9131H147.762V0.823618H168.525C174.368 0.823618 179.398 1.98654 183.615 4.31239C187.831 6.61933 191.074 9.93791 193.343 14.2682C195.631 18.5984 196.775 23.7795 196.775 29.8116C196.775 35.8626 195.631 41.0627 193.343 45.4118C191.074 49.761 187.812 53.0985 183.558 55.4243C179.322 57.7502 174.254 58.9131 168.355 58.9131ZM160.044 48.39H167.844C171.475 48.39 174.529 47.7471 177.006 46.4613C179.502 45.1565 181.374 43.1427 182.622 40.4198C183.889 37.6779 184.522 34.1419 184.522 29.8116C184.522 25.5192 183.889 22.0115 182.622 19.2886C181.374 16.5656 179.511 14.5612 177.034 13.2754C174.557 11.9896 171.503 11.3467 167.872 11.3467H160.044V48.39ZM224.303 59.764C219.821 59.764 215.964 58.8564 212.73 57.0411C209.516 55.2069 207.039 52.6163 205.299 49.2693C203.559 45.9035 202.69 41.9231 202.69 37.3281C202.69 32.8466 203.559 28.9134 205.299 25.5287C207.039 22.1439 209.487 19.506 212.645 17.6151C215.822 15.7242 219.547 14.7787 223.821 14.7787C226.695 14.7787 229.371 15.242 231.848 16.1685C234.344 17.0762 236.518 18.4471 238.371 20.2813C240.244 22.1155 241.7 24.4225 242.74 27.2021C243.78 29.9629 244.3 33.1964 244.3 36.9026V40.2212H207.511V32.7331H232.926C232.926 30.9935 232.547 29.4523 231.791 28.1098C231.035 26.7672 229.985 25.7178 228.643 24.9614C227.319 24.1861 225.778 23.7985 224.019 23.7985C222.185 23.7985 220.559 24.2239 219.141 25.0748C217.741 25.9068 216.645 27.032 215.85 28.4502C215.056 29.8494 214.65 31.4095 214.631 33.1302V40.2496C214.631 42.4052 215.028 44.2678 215.822 45.8373C216.635 47.4068 217.779 48.617 219.254 49.4679C220.729 50.3188 222.478 50.7443 224.501 50.7443C225.844 50.7443 227.073 50.5552 228.189 50.177C229.304 49.7988 230.259 49.2315 231.054 48.4751C231.848 47.7188 232.453 46.7922 232.869 45.6955L244.044 46.4329C243.477 49.1181 242.314 51.4628 240.556 53.4672C238.816 55.4527 236.566 57.0032 233.805 58.1189C231.063 59.2156 227.896 59.764 224.303 59.764ZM290.434 15.346L275.202 58.9131H261.588L246.356 15.346H259.12L268.168 46.518H268.622L277.642 15.346H290.434Z" fill="white"/>
</svg>
